<?xml version="1.0" encoding="UTF-8"?>
<svg width="81px" height="81px" viewBox="0 0 81 81" version="1.1" xmlns="http://www.w3.org/2000/svg" xmlns:xlink="http://www.w3.org/1999/xlink">
    <title>ico_sy_s</title>
    <defs>
        <linearGradient x1="50%" y1="0%" x2="50%" y2="100%" id="linearGradient-1">
            <stop stop-color="#53A8FF" offset="0%"></stop>
            <stop stop-color="#296FFF" offset="100%"></stop>
        </linearGradient>
    </defs>
    <g id="ico_sy_s" stroke="none" stroke-width="1" fill="none" fill-rule="evenodd">
        <g id="编组-11" transform="translate(3.375000, 6.750000)">
            <circle id="椭圆形" fill="url(#linearGradient-1)" opacity="0.800000012" cx="52.3125" cy="45.5625" r="25.3125"></circle>
            <g id="编组" fill="#111111">
                <path d="M64.125,0 C69.7168831,0 74.25,4.51497412 74.25,10.0844769 L74.25,42.3514533 C74.25,45.6082462 72.6708474,48.6645573 70.0100367,50.5575297 L44.9717156,68.370466 C40.2777991,71.7098447 33.9722009,71.7098447 29.2782844,68.370466 L4.23996329,50.5575297 C1.57915255,48.6645573 0,45.6082462 0,42.3514533 L0,10.0844769 C0,4.51497412 4.53311691,0 10.125,0 L64.125,0 Z M64.125,6.72298463 L10.125,6.72298463 C8.39417904,6.72298463 6.96766333,8.02065576 6.77270609,9.69245592 L6.75,10.0844769 L6.75,42.3514533 C6.75,43.3013512 7.15301289,44.2000845 7.84794455,44.8326402 L8.1633211,45.0868121 L33.2016422,62.8997484 C35.3921366,64.4581251 38.2846078,64.5620169 40.5686991,63.2114237 L41.0483578,62.8997484 L66.0866789,45.0868121 C66.8627487,44.5346951 67.3627703,43.6856845 67.4756496,42.754793 L67.5,42.3514533 L67.5,10.0844769 C67.5,8.36058321 66.1971144,6.93977681 64.5185963,6.74559984 L64.125,6.72298463 Z" id="路径-9" fill-rule="nonzero" transform="translate(37.125000, 35.437500) scale(1, -1) translate(-37.125000, -35.437500) "></path>
                <rect id="矩形" x="20.25" y="47.25" width="33.75" height="8.4375" rx="4.21875"></rect>
            </g>
        </g>
    </g>
</svg>