<?xml version="1.0" encoding="UTF-8"?>
<svg width="81px" height="81px" viewBox="0 0 81 81" version="1.1" xmlns="http://www.w3.org/2000/svg" xmlns:xlink="http://www.w3.org/1999/xlink">
    <title>ico_my_n</title>
    <g id="ico_my_n" stroke="none" stroke-width="1" fill="none" fill-rule="evenodd">
        <g id="ic_navbar_sy_s" transform="translate(3.375000, 3.375000)" fill="#999999">
            <path d="M37.125,0 C57.6285713,0 74.25,16.6214287 74.25,37.125 C74.25,57.6285713 57.6285713,74.25 37.125,74.25 C16.6214287,74.25 0,57.6285713 0,37.125 C0,16.6214287 16.6214287,0 37.125,0 Z M37.125,6.75 C20.3493507,6.75 6.75,20.3493507 6.75,37.125 C6.75,53.9006493 20.3493507,67.5 37.125,67.5 C53.9006493,67.5 67.5,53.9006493 67.5,37.125 C67.5,20.3493507 53.9006493,6.75 37.125,6.75 Z" id="椭圆形" fill-rule="nonzero"></path>
            <rect id="矩形" x="21.9375" y="23.625" width="8.4375" height="15.1875" rx="4.21875"></rect>
            <rect id="矩形备份-10" x="43.86375" y="23.625" width="8.4375" height="15.1875" rx="4.21875"></rect>
        </g>
    </g>
</svg>